<?xml version="1.0" encoding="UTF-8"?>
<svg version="1.1" xmlns="http://www.w3.org/2000/svg" width="256" height="256">
<path d="M0 0 C15.84 0 31.68 0 48 0 C48 2.64 48 5.28 48 8 C53.28 8 58.56 8 64 8 C64 10.64 64 13.28 64 16 C69.28 16 74.56 16 80 16 C80 18.64 80 21.28 80 24 C82.64 24 85.28 24 88 24 C88 21.36 88 18.72 88 16 C90.64 16 93.28 16 96 16 C96 13.36 96 10.72 96 8 C101.28 8 106.56 8 112 8 C112 5.36 112 2.72 112 0 C127.84 0 143.68 0 160 0 C160 2.64 160 5.28 160 8 C162.64 8 165.28 8 168 8 C168 10.64 168 13.28 168 16 C173.28 16 178.56 16 184 16 C184 21.28 184 26.56 184 32 C186.64 32 189.28 32 192 32 C192 37.28 192 42.56 192 48 C194.64 48 197.28 48 200 48 C200 63.84 200 79.68 200 96 C197.36 96 194.72 96 192 96 C192 101.28 192 106.56 192 112 C189.36 112 186.72 112 184 112 C184 114.64 184 117.28 184 120 C181.36 120 178.72 120 176 120 C176 125.28 176 130.56 176 136 C173.36 136 170.72 136 168 136 C168 138.64 168 141.28 168 144 C165.36 144 162.72 144 160 144 C160 146.64 160 149.28 160 152 C157.36 152 154.72 152 152 152 C152 154.64 152 157.28 152 160 C149.36 160 146.72 160 144 160 C144 162.64 144 165.28 144 168 C141.36 168 138.72 168 136 168 C136 170.64 136 173.28 136 176 C133.36 176 130.72 176 128 176 C128 178.64 128 181.28 128 184 C125.36 184 122.72 184 120 184 C120 186.64 120 189.28 120 192 C117.36 192 114.72 192 112 192 C112 194.64 112 197.28 112 200 C109.36 200 106.72 200 104 200 C104 202.64 104 205.28 104 208 C101.36 208 98.72 208 96 208 C96 210.64 96 213.28 96 216 C93.36 216 90.72 216 88 216 C88 218.64 88 221.28 88 224 C82.72 224 77.44 224 72 224 C72 221.36 72 218.72 72 216 C69.36 216 66.72 216 64 216 C64 213.36 64 210.72 64 208 C61.36 208 58.72 208 56 208 C56 205.36 56 202.72 56 200 C53.36 200 50.72 200 48 200 C48 197.36 48 194.72 48 192 C45.36 192 42.72 192 40 192 C40 189.36 40 186.72 40 184 C37.36 184 34.72 184 32 184 C32 181.36 32 178.72 32 176 C29.36 176 26.72 176 24 176 C24 173.36 24 170.72 24 168 C21.36 168 18.72 168 16 168 C16 165.36 16 162.72 16 160 C13.36 160 10.72 160 8 160 C8 157.36 8 154.72 8 152 C5.36 152 2.72 152 0 152 C0 149.36 0 146.72 0 144 C-2.64 144 -5.28 144 -8 144 C-8 141.36 -8 138.72 -8 136 C-10.64 136 -13.28 136 -16 136 C-16 130.72 -16 125.44 -16 120 C-18.64 120 -21.28 120 -24 120 C-24 117.36 -24 114.72 -24 112 C-26.64 112 -29.28 112 -32 112 C-32 106.72 -32 101.44 -32 96 C-34.64 96 -37.28 96 -40 96 C-40 80.16 -40 64.32 -40 48 C-37.36 48 -34.72 48 -32 48 C-32 42.72 -32 37.44 -32 32 C-29.36 32 -26.72 32 -24 32 C-24 26.72 -24 21.44 -24 16 C-18.72 16 -13.44 16 -8 16 C-8 13.36 -8 10.72 -8 8 C-5.36 8 -2.72 8 0 8 C0 5.36 0 2.72 0 0 Z M72 64 C72 69.28 72 74.56 72 80 C69.36 80 66.72 80 64 80 C64 85.28 64 90.56 64 96 C61.36 96 58.72 96 56 96 C56 101.28 56 106.56 56 112 C53.36 112 50.72 112 48 112 C48 122.56 48 133.12 48 144 C50.64 144 53.28 144 56 144 C56 146.64 56 149.28 56 152 C61.28 152 66.56 152 72 152 C72 154.64 72 157.28 72 160 C77.28 160 82.56 160 88 160 C88 157.36 88 154.72 88 152 C93.28 152 98.56 152 104 152 C104 149.36 104 146.72 104 144 C106.64 144 109.28 144 112 144 C112 133.44 112 122.88 112 112 C109.36 112 106.72 112 104 112 C104 106.72 104 101.44 104 96 C101.36 96 98.72 96 96 96 C96 90.72 96 85.44 96 80 C93.36 80 90.72 80 88 80 C88 74.72 88 69.44 88 64 C82.72 64 77.44 64 72 64 Z " fill="#CD3127" transform="translate(48,16)"/>
<path d="M0 0 C7.92 0 15.84 0 24 0 C24 2.64 24 5.28 24 8 C16.08 8 8.16 8 0 8 C0 5.36 0 2.72 0 0 Z " fill="#CC3222" transform="translate(48,16)"/>
<path d="M0 0 C5.28 0 10.56 0 16 0 C16 2.64 16 5.28 16 8 C10.72 8 5.44 8 0 8 C0 5.36 0 2.72 0 0 Z " fill="#CC3333" transform="translate(120,232)"/>
<path d="M0 0 C2.64 0 5.28 0 8 0 C8 2.64 8 5.28 8 8 C5.36 8 2.72 8 0 8 C0 5.36 0 2.72 0 0 Z " fill="#BF4000" transform="translate(136,224)"/>
<path d="M0 0 C2.64 0 5.28 0 8 0 C8 2.64 8 5.28 8 8 C5.36 8 2.72 8 0 8 C0 5.36 0 2.72 0 0 Z " fill="#AA0000" transform="translate(112,224)"/>
<path d="M0 0 C2.64 0 5.28 0 8 0 C8 2.64 8 5.28 8 8 C5.36 8 2.72 8 0 8 C0 5.36 0 2.72 0 0 Z " fill="#FF0000" transform="translate(144,216)"/>
<path d="M0 0 C2.64 0 5.28 0 8 0 C8 2.64 8 5.28 8 8 C5.36 8 2.72 8 0 8 C0 5.36 0 2.72 0 0 Z " fill="#FF0000" transform="translate(104,216)"/>
<path d="M0 0 C2.64 0 5.28 0 8 0 C8 2.64 8 5.28 8 8 C5.36 8 2.72 8 0 8 C0 5.36 0 2.72 0 0 Z " fill="#AA0000" transform="translate(152,208)"/>
<path d="M0 0 C2.64 0 5.28 0 8 0 C8 2.64 8 5.28 8 8 C5.36 8 2.72 8 0 8 C0 5.36 0 2.72 0 0 Z " fill="#AA0000" transform="translate(96,208)"/>
<path d="M0 0 C2.64 0 5.28 0 8 0 C8 2.64 8 5.28 8 8 C5.36 8 2.72 8 0 8 C0 5.36 0 2.72 0 0 Z " fill="#CC3333" transform="translate(160,200)"/>
<path d="M0 0 C2.64 0 5.28 0 8 0 C8 2.64 8 5.28 8 8 C5.36 8 2.72 8 0 8 C0 5.36 0 2.72 0 0 Z " fill="#BF4040" transform="translate(88,200)"/>
<path d="M0 0 C2.64 0 5.28 0 8 0 C8 2.64 8 5.28 8 8 C5.36 8 2.72 8 0 8 C0 5.36 0 2.72 0 0 Z " fill="#DB2424" transform="translate(168,192)"/>
<path d="M0 0 C2.64 0 5.28 0 8 0 C8 2.64 8 5.28 8 8 C5.36 8 2.72 8 0 8 C0 5.36 0 2.72 0 0 Z " fill="#DB2424" transform="translate(80,192)"/>
<path d="M0 0 C2.64 0 5.28 0 8 0 C8 2.64 8 5.28 8 8 C5.36 8 2.72 8 0 8 C0 5.36 0 2.72 0 0 Z " fill="#CC331A" transform="translate(176,184)"/>
<path d="M0 0 C2.64 0 5.28 0 8 0 C8 2.64 8 5.28 8 8 C5.36 8 2.72 8 0 8 C0 5.36 0 2.72 0 0 Z " fill="#CC331A" transform="translate(72,184)"/>
<path d="M0 0 C2.64 0 5.28 0 8 0 C8 2.64 8 5.28 8 8 C5.36 8 2.72 8 0 8 C0 5.36 0 2.72 0 0 Z " fill="#C42727" transform="translate(184,176)"/>
<path d="M0 0 C2.64 0 5.28 0 8 0 C8 2.64 8 5.28 8 8 C5.36 8 2.72 8 0 8 C0 5.36 0 2.72 0 0 Z " fill="#C82424" transform="translate(64,176)"/>
<path d="M0 0 C2.64 0 5.28 0 8 0 C8 2.64 8 5.28 8 8 C5.36 8 2.72 8 0 8 C0 5.36 0 2.72 0 0 Z " fill="#FF0000" transform="translate(136,168)"/>
<path d="M0 0 C2.64 0 5.28 0 8 0 C8 2.64 8 5.28 8 8 C5.36 8 2.72 8 0 8 C0 5.36 0 2.72 0 0 Z " fill="#FF0000" transform="translate(112,168)"/>
<path d="M0 0 C2.64 0 5.28 0 8 0 C8 2.64 8 5.28 8 8 C5.36 8 2.72 8 0 8 C0 5.36 0 2.72 0 0 Z " fill="#C62B1C" transform="translate(200,160)"/>
<path d="M0 0 C2.64 0 5.28 0 8 0 C8 2.64 8 5.28 8 8 C5.36 8 2.72 8 0 8 C0 5.36 0 2.72 0 0 Z " fill="#C82424" transform="translate(208,152)"/>
<path d="M0 0 C2.64 0 5.28 0 8 0 C8 2.64 8 5.28 8 8 C5.36 8 2.72 8 0 8 C0 5.36 0 2.72 0 0 Z " fill="#C82424" transform="translate(40,152)"/>
<path d="M0 0 C2.64 0 5.28 0 8 0 C8 2.64 8 5.28 8 8 C5.36 8 2.72 8 0 8 C0 5.36 0 2.72 0 0 Z " fill="#DB2424" transform="translate(216,144)"/>
<path d="M0 0 C2.64 0 5.28 0 8 0 C8 2.64 8 5.28 8 8 C5.36 8 2.72 8 0 8 C0 5.36 0 2.72 0 0 Z " fill="#DB2424" transform="translate(32,144)"/>
<path d="M0 0 C2.64 0 5.28 0 8 0 C8 2.64 8 5.28 8 8 C5.36 8 2.72 8 0 8 C0 5.36 0 2.72 0 0 Z " fill="#D52A2A" transform="translate(232,120)"/>
<path d="M0 0 C2.64 0 5.28 0 8 0 C8 2.64 8 5.28 8 8 C5.36 8 2.72 8 0 8 C0 5.36 0 2.72 0 0 Z " fill="#FF0000" transform="translate(152,120)"/>
<path d="M0 0 C2.64 0 5.28 0 8 0 C8 2.64 8 5.28 8 8 C5.36 8 2.72 8 0 8 C0 5.36 0 2.72 0 0 Z " fill="#FF0000" transform="translate(96,120)"/>
<path d="M0 0 C2.64 0 5.28 0 8 0 C8 2.64 8 5.28 8 8 C5.36 8 2.72 8 0 8 C0 5.36 0 2.72 0 0 Z " fill="#D12E17" transform="translate(16,120)"/>
<path d="M0 0 C2.64 0 5.28 0 8 0 C8 2.64 8 5.28 8 8 C5.36 8 2.72 8 0 8 C0 5.36 0 2.72 0 0 Z " fill="#AA0000" transform="translate(240,104)"/>
<path d="M0 0 C2.64 0 5.28 0 8 0 C8 2.64 8 5.28 8 8 C5.36 8 2.72 8 0 8 C0 5.36 0 2.72 0 0 Z " fill="#CC3333" transform="translate(104,104)"/>
<path d="M0 0 C2.64 0 5.28 0 8 0 C8 2.64 8 5.28 8 8 C5.36 8 2.72 8 0 8 C0 5.36 0 2.72 0 0 Z " fill="#FF0000" transform="translate(8,104)"/>
<path d="M0 0 C2.64 0 5.28 0 8 0 C8 2.64 8 5.28 8 8 C5.36 8 2.72 8 0 8 C0 5.36 0 2.72 0 0 Z " fill="#C62B1C" transform="translate(136,88)"/>
<path d="M0 0 C2.64 0 5.28 0 8 0 C8 2.64 8 5.28 8 8 C5.36 8 2.72 8 0 8 C0 5.36 0 2.72 0 0 Z " fill="#C82424" transform="translate(112,88)"/>
<path d="M0 0 C2.64 0 5.28 0 8 0 C8 2.64 8 5.28 8 8 C5.36 8 2.72 8 0 8 C0 5.36 0 2.72 0 0 Z " fill="#FF0000" transform="translate(224,32)"/>
<path d="M0 0 C2.64 0 5.28 0 8 0 C8 2.64 8 5.28 8 8 C5.36 8 2.72 8 0 8 C0 5.36 0 2.72 0 0 Z " fill="#FF0000" transform="translate(120,32)"/>
<path d="M0 0 C2.64 0 5.28 0 8 0 C8 2.64 8 5.28 8 8 C5.36 8 2.72 8 0 8 C0 5.36 0 2.72 0 0 Z " fill="#FF0000" transform="translate(24,32)"/>
<path d="M0 0 C2.64 0 5.28 0 8 0 C8 2.64 8 5.28 8 8 C5.36 8 2.72 8 0 8 C0 5.36 0 2.72 0 0 Z " fill="#FF0000" transform="translate(200,16)"/>
<path d="M0 0 C2.64 0 5.28 0 8 0 C8 2.64 8 5.28 8 8 C5.36 8 2.72 8 0 8 C0 5.36 0 2.72 0 0 Z " fill="#C42727" transform="translate(160,16)"/>
<path d="M0 0 C2.64 0 5.28 0 8 0 C8 2.64 8 5.28 8 8 C5.36 8 2.72 8 0 8 C0 5.36 0 2.72 0 0 Z " fill="#C42727" transform="translate(88,16)"/>
<path d="M0 0 C2.64 0 5.28 0 8 0 C8 2.64 8 5.28 8 8 C5.36 8 2.72 8 0 8 C0 5.36 0 2.72 0 0 Z " fill="#FF0000" transform="translate(48,16)"/>
</svg>
